<svg xmlns="http://www.w3.org/2000/svg" xmlns:xlink="http://www.w3.org/1999/xlink" viewBox="0,0,256,256" width="120px" height="120px"><g fill="#000000" fill-rule="nonzero" stroke="none" stroke-width="1" stroke-linecap="butt" stroke-linejoin="miter" stroke-miterlimit="10" stroke-dasharray="" stroke-dashoffset="0" font-family="none" font-weight="none" font-size="none" text-anchor="none" style="mix-blend-mode: normal"><g transform="scale(8.53333,8.53333)"><path d="M14.98438,2.48633c-0.55152,0.00862 -0.99193,0.46214 -0.98437,1.01367v0.5h-5.5c-0.26757,-0.00363 -0.52543,0.10012 -0.71593,0.28805c-0.1905,0.18793 -0.29774,0.44436 -0.29774,0.71195h-1.48633c-0.36064,-0.0051 -0.69608,0.18438 -0.87789,0.49587c-0.18181,0.3115 -0.18181,0.69676 0,1.00825c0.18181,0.3115 0.51725,0.50097 0.87789,0.49587h18c0.36064,0.0051 0.69608,-0.18438 0.87789,-0.49587c0.18181,-0.3115 0.18181,-0.69676 0,-1.00825c-0.18181,-0.3115 -0.51725,-0.50097 -0.87789,-0.49587h-1.48633c0,-0.26759 -0.10724,-0.52403 -0.29774,-0.71195c-0.1905,-0.18793 -0.44836,-0.29168 -0.71593,-0.28805h-5.5v-0.5c0.0037,-0.2703 -0.10218,-0.53059 -0.29351,-0.72155c-0.19133,-0.19097 -0.45182,-0.29634 -0.72212,-0.29212zM6,9l1.79297,15.23438c0.118,1.007 0.97037,1.76563 1.98438,1.76563h10.44531c1.014,0 1.86538,-0.75862 1.98438,-1.76562l1.79297,-15.23437z"></path></g></g><g fill="#282525" fill-rule="nonzero" stroke="none" stroke-width="1" stroke-linecap="butt" stroke-linejoin="miter" stroke-miterlimit="10" stroke-dasharray="" stroke-dashoffset="0" font-family="none" font-weight="none" font-size="none" text-anchor="none" style="mix-blend-mode: normal"><g><path d="M104.29167,138.43v30.34h-4.02v-14.02h-15.29v14.02h-4v-30.34h4v13.05h15.29v-13.05zM115.69167,138.43v30.34h-4v-30.34zM133.52167,168.77h-10.52v-30.34h9.92c3.29333,0 5.77,0.68333 7.43,2.05c1.66,1.36 2.49,3.37333 2.49,6.04v0c0,1.41333 -0.40333,2.66667 -1.21,3.76c-0.80667,1.08667 -1.90667,1.93 -3.3,2.53v0c1.64,0.46 2.93667,1.33 3.89,2.61c0.95333,1.28667 1.43,2.82 1.43,4.6v0c0,2.72 -0.88333,4.85667 -2.65,6.41c-1.76,1.56 -4.25333,2.34 -7.48,2.34zM133.67167,154.58h-6.67v10.92h6.61c1.86,0 3.32667,-0.48333 4.4,-1.45c1.08,-0.96667 1.62,-2.29667 1.62,-3.99v0c0,-3.65333 -1.98667,-5.48 -5.96,-5.48zM127.00167,141.73v9.64h6.04c1.75333,0 3.15333,-0.43667 4.2,-1.31c1.04667,-0.87333 1.57,-2.06 1.57,-3.56v0c0,-1.66667 -0.48333,-2.88 -1.45,-3.64c-0.97333,-0.75333 -2.45333,-1.13 -4.44,-1.13v0zM169.21167,168.77l-2.9,-7.92h-12.7l-2.86,7.92h-4.12l11.58,-30.34h3.5l11.6,30.34zM159.96167,143.37l-5.15,14.19h10.32z"></path></g></g></svg>